<svg width="34" height="27" xmlns="http://www.w3.org/2000/svg" xmlns:xlink="http://www.w3.org/1999/xlink" xml:space="preserve" overflow="hidden"><defs><clipPath id="clip0"><path d="M427.413 755.733 422.639 748.702 394.517 767.798 399.292 774.829Z" fill-rule="evenodd" clip-rule="evenodd"/></clipPath><clipPath id="clip1"><path d="M427.413 755.733 422.639 748.702 394.517 767.798 399.292 774.829Z" fill-rule="evenodd" clip-rule="evenodd"/></clipPath><clipPath id="clip2"><path d="M427.413 755.733 422.639 748.702 394.517 767.798 399.292 774.829Z" fill-rule="evenodd" clip-rule="evenodd"/></clipPath></defs><g transform="translate(-394 -748)"><g clip-path="url(#clip0)"><g clip-path="url(#clip1)"><g clip-path="url(#clip2)"><path d="M261.705 385.187 270.203 385.187 270.203 400.449 261.705 400.449Z" fill="#FFD966" transform="matrix(-0.561785 -0.827313 -0.827293 0.561771 891.663 756.832)"/><path d="M261.705 385.187 261.705 383.453 264.654 385.187Z" fill="#FFD966" fill-rule="evenodd" transform="matrix(-0.561785 -0.827313 -0.827293 0.561771 891.663 756.832)"/><path d="M0 1.73429 0 0 2.94827 1.73429Z" fill="#FFD966" fill-rule="evenodd" transform="matrix(0.561785 0.827313 -0.827293 0.561771 422.639 748.702)"/><path d="M264.133 385.187 265.781 383.453 267.429 385.187Z" fill="#FFD966" fill-rule="evenodd" transform="matrix(-0.561785 -0.827313 -0.827293 0.561771 891.663 756.832)"/><path d="M0 0 8.49802 0 8.49802 15.2618 2.83686e-07 15.2618Z" fill="#FFD966" transform="matrix(-0.561785 -0.827313 0.827293 -0.561771 400.726 773.854)"/><path d="M0 1.73429 0 0 2.94827 1.73429Z" fill="#FFD966" fill-rule="evenodd" transform="matrix(-0.561785 -0.827313 0.827293 -0.561771 399.292 774.829)"/><path d="M270.204 415.711 270.204 417.445 267.255 415.711Z" fill="#FFD966" fill-rule="evenodd" transform="matrix(-0.561785 -0.827313 -0.827293 0.561771 891.663 756.832)"/><path d="M0 1.73429 1.64757 0 3.29515 1.73429Z" fill="#FFD966" fill-rule="evenodd" transform="matrix(-0.561785 -0.827313 0.827293 -0.561771 397.927 772.82)"/></g></g></g></g></svg>