<svg width="1238" height="406" xmlns="http://www.w3.org/2000/svg" xmlns:xlink="http://www.w3.org/1999/xlink" xml:space="preserve" overflow="hidden"><defs><linearGradient x1="1519.15" y1="3050.79" x2="1452.86" y2="3103.7" gradientUnits="userSpaceOnUse" spreadMethod="reflect" id="fill0"><stop offset="0" stop-color="#1FA9C5"/><stop offset="0.04" stop-color="#1FA9C5"/><stop offset="1" stop-color="#198CA3"/></linearGradient></defs><g transform="translate(-333 -3003)"><path d="M334.373 3407.93 451.264 3348.58 607.687 3251.78C644.676 3222.21 680.672 3190.53 699.096 3161.45 717.52 3132.36 723.587 3103.19 718.234 3077.25 712.881 3051.31 691.221 3010.99 666.978 3005.81 642.734 3000.64 596.132 3020.49 572.772 3046.21 549.413 3071.92 529.162 3122.31 526.821 3160.08 524.481 3197.84 540.392 3244.57 558.729 3272.8 577.065 3301.03 594.79 3321.48 636.841 3329.47 678.892 3337.46 737.769 3335.32 811.034 3320.75 820.869 3320.35 936.902 3300.14 1009.37 3277.14 1081.84 3254.14 1170.85 3216.81 1245.85 3182.74 1320.86 3148.68 1422.82 3091.76 1459.42 3072.75 1496.02 3053.74 1464.02 3070.64 1465.43 3068.66" stroke="#586D64" stroke-width="2.29167" stroke-miterlimit="8" stroke-dasharray="9.16667 6.875" fill="none" fill-rule="evenodd"/><path d="M1509.66 3038.91 1462.34 3115.58 1444.26 3092.94Z" fill="url(#fill0)" fill-rule="evenodd"/><text fill="#FFFFFF" font-family="Calibri,Calibri_MSFontService,sans-serif" font-weight="400" font-size="70" transform="matrix(0.623811 0.781575 -0.781575 0.623811 1467.85 3092)"> </text><path d="M0 74.354 120.52 110.658 117.982 107.062 120.167 107.062 43.1798 0 67.2616 71.2059C42.6347 76.6962 22.7976 70.9323 0 74.354Z" fill="#1FA9C5" fill-rule="evenodd" transform="matrix(0.992007 0.126183 0.126183 -0.992007 1378.62 3129.91)"/><path d="M43.8758 2.05739 44.3105 1.57239 43.1798 0ZM0 74.3542 120.52 110.658 118.074 107.192 77.1564 70.5042 67.2326 71.1191 67.2619 71.2061C54.9483 73.951 43.8321 73.8827 32.9449 73.5559L29.2454 73.4729 18.5497 74.1355 18.4935 73.2319 16.6643 73.1908C11.2137 73.2176 5.69932 73.4986 0 74.3542Z" fill="#1DA2BD" fill-rule="evenodd" transform="matrix(0.992007 0.126183 0.126183 -0.992007 1374.87 3130.97)"/><path d="M1.23371 3.27296 2.03088 2.53419 0 0ZM65.6429 85.3248 66.6871 85.6069 64.499 82.8252 64.723 82.8252 14.9086 39.5508 19.0064 50.4215Z" fill="#198CA3" fill-rule="evenodd" transform="matrix(0.992007 0.126183 0.126183 -0.992007 1429.35 3114.43)"/></g></svg>