<svg width="113" height="32" xmlns="http://www.w3.org/2000/svg" xmlns:xlink="http://www.w3.org/1999/xlink" xml:space="preserve" overflow="hidden"><g transform="translate(-445 -2195)"><path d="M448.711 2195.5C448.623 2197.75 446.719 2199.66 447.602 2201.14 448.614 2207.75 452.08 2203.13 455.363 2202.27 456.459 2201.72 457.612 2201.39 458.69 2201.14 459.047 2202.13 458.965 2204.27 459.798 2204.53 463.127 2204.39 467.043 2201.74 469.777 2200.01 470.316 2201.86 472.146 2203.49 473.103 2205.66 473.956 2207.35 472.544 2210.15 474.212 2211.3 475.739 2212.36 478.301 2209.95 479.755 2209.04 481.184 2208.55 482.217 2208.31 483.082 2207.92 484.879 2208.23 487.292 2209.35 488.625 2209.04 490.464 2208.68 491.498 2207.13 493.06 2205.66 493.88 2204.6 495.061 2203.88 496.386 2203.4 497.588 2209.73 497.531 2210.95 497.495 2206.79" stroke="#FFFF00" stroke-width="3.4375" stroke-miterlimit="8" fill="none" fill-rule="evenodd"/><path d="M506.5 2209.42C508.559 2206.32 515.057 2202.21 518.695 2203.93 520.066 2204.54 518.813 2207.01 519.804 2208.32 522.005 2213.12 523.168 2212.84 527.565 2214.91 531.09 2212.17 535.265 2209.93 540.87 2213.81 542.726 2215.97 542.9 2218.96 543.087 2221.5 544.002 2220.1 545.649 2219.32 546.413 2218.21 547.101 2217.06 546.359 2215.12 547.522 2214.91 548.772 2214.45 549.838 2216.53 550.848 2217.11 555.878 2220.81 552.511 2220.78 557.5 2221.5" stroke="#FFFF00" stroke-width="3.4375" stroke-miterlimit="8" fill="none" fill-rule="evenodd"/></g></svg>