<svg width="1297" height="1004" xmlns="http://www.w3.org/2000/svg" xmlns:xlink="http://www.w3.org/1999/xlink" xml:space="preserve" overflow="hidden"><defs><linearGradient x1="1555.17" y1="1713.02" x2="1488.88" y2="1765.93" gradientUnits="userSpaceOnUse" spreadMethod="reflect" id="fill0"><stop offset="0" stop-color="#1FA9C5"/><stop offset="0.04" stop-color="#1FA9C5"/><stop offset="1" stop-color="#198CA3"/></linearGradient></defs><g transform="translate(-312 -1068)"><path d="M370.398 2070.16 487.289 2010.81 643.712 1914.01C680.701 1884.44 716.697 1852.77 735.121 1823.68 753.545 1794.59 759.612 1765.42 754.259 1739.48 748.906 1713.54 727.246 1673.22 703.003 1668.04 678.759 1662.87 632.157 1682.73 608.797 1708.44 585.438 1734.15 565.187 1784.54 562.846 1822.31 560.506 1860.07 576.417 1906.8 594.754 1935.03 613.09 1963.26 630.815 1983.71 672.866 1991.7 714.917 1999.69 773.794 1997.55 847.059 1982.98 856.894 1982.58 972.927 1962.37 1045.4 1939.37 1117.87 1916.37 1206.87 1879.04 1281.88 1844.97 1356.89 1810.91 1458.85 1754 1495.45 1734.98 1532.04 1715.97 1500.04 1732.87 1501.45 1730.9" stroke="#586D64" stroke-width="2.29167" stroke-miterlimit="8" stroke-dasharray="9.16667 6.875" fill="none" fill-rule="evenodd"/><path d="M1545.69 1701.14 1498.37 1777.82 1480.29 1755.17Z" fill="url(#fill0)" fill-rule="evenodd"/><path d="M0 74.354 120.52 110.658 117.982 107.062 120.167 107.062 43.1798 0 67.2616 71.2059C42.6347 76.6962 22.7976 70.9323 0 74.354Z" fill="#1FA9C5" fill-rule="evenodd" transform="matrix(0.992007 0.126183 0.126183 -0.992007 1414.64 1792.14)"/><path d="M43.8758 2.05739 44.3105 1.57239 43.1798 0ZM0 74.3542 120.52 110.658 118.074 107.192 77.1564 70.5042 67.2326 71.1191 67.2619 71.2061C54.9483 73.951 43.8321 73.8827 32.9449 73.5559L29.2454 73.4729 18.5497 74.1355 18.4935 73.2319 16.6643 73.1908C11.2137 73.2176 5.69932 73.4986 0 74.3542Z" fill="#1DA2BD" fill-rule="evenodd" transform="matrix(0.992007 0.126183 0.126183 -0.992007 1410.9 1793.2)"/><path d="M1.23371 3.27296 2.03088 2.53419 0 0ZM65.6429 85.3248 66.6871 85.6069 64.499 82.8252 64.723 82.8252 14.9086 39.5508 19.0064 50.4215Z" fill="#198CA3" fill-rule="evenodd" transform="matrix(0.992007 0.126183 0.126183 -0.992007 1465.37 1776.66)"/><path d="M1601.99 1069C1607.15 1204.44 1612.3 1339.87 1481.68 1365.12 1351.07 1390.37 1013.07 1214.19 818.284 1220.51 623.504 1226.82 468.252 1314.91 313 1403" stroke="#586D64" stroke-width="2.29167" stroke-miterlimit="8" stroke-dasharray="9.16667 6.875" fill="none" fill-rule="evenodd"/></g></svg>